<svg xmlns="http://www.w3.org/2000/svg" xmlns:xlink="http://www.w3.org/1999/xlink" width="201.564" height="43.386" viewBox="0 0 201.564 43.386">
  <defs>
    <clipPath id="clip-path">
      <rect id="사각형_524" data-name="사각형 524" width="201.564" height="43.386" fill="none"/>
    </clipPath>
  </defs>
  <g id="그룹_740" data-name="그룹 740" clip-path="url(#clip-path)" style="isolation: isolate">
    <path id="패스_506" data-name="패스 506" d="M10.14,20.868H2.828A1.76,1.76,0,0,1,1,19.184H1A1.76,1.76,0,0,1,2.828,17.5H25.341a1.76,1.76,0,0,1,1.828,1.684h0a1.76,1.76,0,0,1-1.828,1.684H18.084a1.761,1.761,0,0,0-1.828,1.684V53.683a1.76,1.76,0,0,1-1.828,1.684H13.8a1.76,1.76,0,0,1-1.828-1.684V22.552a1.76,1.76,0,0,0-1.828-1.684" transform="translate(-0.717 -12.549)" fill="#050605"/>
    <path id="패스_507" data-name="패스 507" d="M13.711,54.933h-.633a2.045,2.045,0,0,1-2.111-1.967V21.835a1.48,1.48,0,0,0-1.545-1.4H2.111a1.972,1.972,0,1,1,0-3.934H24.624a1.972,1.972,0,1,1,0,3.934H17.367a1.48,1.48,0,0,0-1.545,1.4V52.966a2.045,2.045,0,0,1-2.111,1.967M2.111,17.065a1.408,1.408,0,1,0,0,2.8H9.423a2.045,2.045,0,0,1,2.11,1.967V52.966a1.48,1.48,0,0,0,1.545,1.4h.633a1.48,1.48,0,0,0,1.545-1.4V21.835a2.045,2.045,0,0,1,2.111-1.967h7.257a1.408,1.408,0,1,0,0-2.8Z" transform="translate(0 -11.832)" fill="#090909"/>
    <path id="패스_508" data-name="패스 508" d="M108.89,52h21.648a1.76,1.76,0,0,1,1.827,1.684h0a1.76,1.76,0,0,1-1.827,1.684H108.89a1.762,1.762,0,0,1-1.828-1.672h0A1.759,1.759,0,0,1,108.89,52m.014-34.5h21.634a1.76,1.76,0,0,1,1.827,1.684h0a1.76,1.76,0,0,1-1.827,1.684H108.9a1.76,1.76,0,0,1-1.828-1.684h0A1.76,1.76,0,0,1,108.9,17.5m.077,16.743h21.481a1.8,1.8,0,0,1,1.9,1.684v.026a1.8,1.8,0,0,1-1.9,1.684H108.98a1.8,1.8,0,0,1-1.9-1.684v-.026a1.8,1.8,0,0,1,1.9-1.684" transform="translate(-76.779 -12.549)" fill="#d35222"/>
    <path id="패스_509" data-name="패스 509" d="M129.82,54.933H108.172a2.05,2.05,0,0,1-2.111-1.952,1.889,1.889,0,0,1,.56-1.35,2.191,2.191,0,0,1,1.55-.632H129.82a1.972,1.972,0,1,1,0,3.934m-21.648-3.369a1.622,1.622,0,0,0-1.149.464,1.326,1.326,0,0,0-.4.947,1.484,1.484,0,0,0,1.545,1.391H129.82a1.408,1.408,0,1,0,0-2.8ZM129.744,37.2H108.263a1.99,1.99,0,1,1,0-3.96h21.481a1.99,1.99,0,1,1,0,3.96m-21.481-3.394a1.428,1.428,0,1,0,0,2.829h21.481a1.427,1.427,0,1,0,0-2.829ZM129.82,20.433H108.186a1.972,1.972,0,1,1,0-3.934H129.82a1.972,1.972,0,1,1,0,3.934m-21.634-3.369a1.408,1.408,0,1,0,0,2.8H129.82a1.408,1.408,0,1,0,0-2.8Z" transform="translate(-76.062 -11.832)" fill="#d35222"/>
    <path id="패스_510" data-name="패스 510" d="M215.54,55.527h-.633a1.76,1.76,0,0,1-1.828-1.684v-34.5a1.76,1.76,0,0,1,1.828-1.684H227.73a25.781,25.781,0,0,1,3.835.279,12.344,12.344,0,0,1,3.423,1.013,11.43,11.43,0,0,1,4.769,4.015,10.835,10.835,0,0,1,1.828,6.269,12.032,12.032,0,0,1-.88,4.686,12.4,12.4,0,0,1-2.254,3.609,10.3,10.3,0,0,1-3.12,2.356,11.039,11.039,0,0,1-1.2.5,1.633,1.633,0,0,0-.895,2.493q1.889,2.687,3.735,5.338,1.635,2.351,3.271,4.718a1.686,1.686,0,0,1-1.542,2.59h-.781a1.871,1.871,0,0,1-1.542-.779q-2.2-3.183-4.395-6.377-2.32-3.38-4.652-6.794a1.594,1.594,0,0,1-.282-.9V39.461a1.761,1.761,0,0,1,1.788-1.684q.672-.016,1.18-.045a11.553,11.553,0,0,0,2.392-.418,5.2,5.2,0,0,0,1.966-1.064,7.541,7.541,0,0,0,1.539-1.811,9.284,9.284,0,0,0,1.017-2.381,10.081,10.081,0,0,0,.371-2.723,8.475,8.475,0,0,0-1.1-4.471,7.48,7.48,0,0,0-3-2.8,9.222,9.222,0,0,0-2.515-.8,17.306,17.306,0,0,0-2.955-.241H219.2a1.76,1.76,0,0,0-1.828,1.684V53.842a1.76,1.76,0,0,1-1.828,1.684" transform="translate(-152.809 -12.663)" fill="#050605"/>
    <path id="패스_511" data-name="패스 511" d="M237.978,55.092H237.2a2.145,2.145,0,0,1-1.775-.9q-2.2-3.184-4.4-6.378-2.321-3.38-4.653-6.794a1.87,1.87,0,0,1-.331-1.058V38.743a2.03,2.03,0,0,1,2.064-1.966c.438-.01.832-.025,1.171-.044a11.384,11.384,0,0,0,2.333-.408,4.947,4.947,0,0,0,1.857-1.007,7.292,7.292,0,0,0,1.481-1.744,9.04,9.04,0,0,0,.986-2.309,9.848,9.848,0,0,0,.361-2.647,8.237,8.237,0,0,0-1.059-4.324,7.238,7.238,0,0,0-2.885-2.695,8.98,8.98,0,0,0-2.433-.77,17.107,17.107,0,0,0-2.907-.236h-8.535a1.48,1.48,0,0,0-1.545,1.4V53.125a2.045,2.045,0,0,1-2.111,1.967h-.633a2.045,2.045,0,0,1-2.111-1.967v-34.5a2.045,2.045,0,0,1,2.111-1.967h12.824a26.191,26.191,0,0,1,3.877.282,12.686,12.686,0,0,1,3.5,1.037,11.754,11.754,0,0,1,4.883,4.111,11.162,11.162,0,0,1,1.877,6.429,12.372,12.372,0,0,1-.9,4.8A12.745,12.745,0,0,1,237.943,37a10.628,10.628,0,0,1-3.205,2.419,11.416,11.416,0,0,1-1.235.515,1.464,1.464,0,0,0-.938.921A1.27,1.27,0,0,0,232.746,42q1.889,2.687,3.736,5.339,1.636,2.351,3.271,4.719a1.838,1.838,0,0,1,.122,1.928,2.117,2.117,0,0,1-1.9,1.105m-19.5-35.065h8.535a17.691,17.691,0,0,1,3,.245,9.555,9.555,0,0,1,2.592.823A7.8,7.8,0,0,1,235.721,24a8.786,8.786,0,0,1,1.141,4.618,10.413,10.413,0,0,1-.382,2.8,9.613,9.613,0,0,1-1.049,2.453,7.853,7.853,0,0,1-1.6,1.879,5.5,5.5,0,0,1-2.071,1.121,11.938,11.938,0,0,1-2.453.428c-.346.02-.746.035-1.19.046a1.487,1.487,0,0,0-1.512,1.4v1.218a1.31,1.31,0,0,0,.232.739q2.332,3.414,4.652,6.793,2.191,3.194,4.394,6.376a1.58,1.58,0,0,0,1.31.657h.781a1.554,1.554,0,0,0,1.4-.8,1.266,1.266,0,0,0-.087-1.344q-1.635-2.366-3.27-4.717-1.845-2.651-3.734-5.337a1.848,1.848,0,0,1-.257-1.641,2.024,2.024,0,0,1,1.29-1.282,10.859,10.859,0,0,0,1.174-.49,10.055,10.055,0,0,0,3.035-2.292,12.18,12.18,0,0,0,2.2-3.528,11.812,11.812,0,0,0,.858-4.577,10.606,10.606,0,0,0-1.779-6.11,11.2,11.2,0,0,0-4.654-3.918,12.137,12.137,0,0,0-3.347-.991,25.628,25.628,0,0,0-3.793-.275H214.19a1.48,1.48,0,0,0-1.545,1.4v34.5a1.48,1.48,0,0,0,1.545,1.4h.633a1.48,1.48,0,0,0,1.545-1.4V21.994a2.045,2.045,0,0,1,2.111-1.967" transform="translate(-152.092 -11.946)" fill="#090909"/>
    <path id="패스_512" data-name="패스 512" d="M477.463,24.032a20.859,20.859,0,0,0-6.5-4.947,1.278,1.278,0,0,0-1.766.774l-.031.1a4.532,4.532,0,0,0,1.779,5.014,16.1,16.1,0,0,1,1.932,1.635,14.714,14.714,0,0,1,.8,20.128,15.118,15.118,0,0,1-22.8.014,14.176,14.176,0,0,1-3.575-8.517,14.327,14.327,0,0,1,4.352-11.625,16.049,16.049,0,0,1,1.969-1.662,4.49,4.49,0,0,0,1.672-5.115,1.28,1.28,0,0,0-1.758-.734,21.473,21.473,0,0,0-7.387,6.006,17.776,17.776,0,0,0-3.855,9.136q-1.205,10.452,6.225,17.385a20.046,20.046,0,0,0,13.161,5.35A19.587,19.587,0,0,0,476.5,51.154a19.2,19.2,0,0,0,5.859-15.477,19.117,19.117,0,0,0-4.9-11.645" transform="translate(-317.073 -13.598)" fill="#070707"/>
    <path id="패스_513" data-name="패스 513" d="M508.326,22.411h0a1.977,1.977,0,0,1-1.971-1.971V1.97a1.971,1.971,0,0,1,3.942,0V20.44a1.977,1.977,0,0,1-1.971,1.971" transform="translate(-363.131 0.001)" fill="#d35222"/>
    <path id="패스_514" data-name="패스 514" d="M343.077,21.438l14.8,33.675a1.69,1.69,0,0,1-1.6,2.345h-.656a1.738,1.738,0,0,1-1.6-1.034L343.079,31.061a1.758,1.758,0,0,0-3.2-.006L328.826,56.429a1.738,1.738,0,0,1-1.6,1.028h-.653a1.689,1.689,0,0,1-1.6-2.349l14.906-33.676a1.758,1.758,0,0,1,3.193,0" transform="translate(-232.955 -14.64)" fill="#050605"/>
    <path id="패스_515" data-name="패스 515" d="M355.561,57.024h-.656a2.016,2.016,0,0,1-1.861-1.205L342.106,30.457a1.438,1.438,0,0,0-1.339-.864h0a1.437,1.437,0,0,0-1.34.859L328.372,55.826a2.017,2.017,0,0,1-1.859,1.2h-.653a2.023,2.023,0,0,1-1.705-.914,1.922,1.922,0,0,1-.149-1.832L338.912,20.6a1.994,1.994,0,0,1,1.854-1.188h0a1.994,1.994,0,0,1,1.853,1.193l14.8,33.675a1.921,1.921,0,0,1-.152,1.829,2.023,2.023,0,0,1-1.7.912m-14.8-28h0a1.991,1.991,0,0,1,1.857,1.205L353.564,55.6a1.451,1.451,0,0,0,1.342.864h.656a1.46,1.46,0,0,0,1.23-.655,1.341,1.341,0,0,0,.108-1.293L342.1,20.835a1.435,1.435,0,0,0-1.336-.855h0a1.435,1.435,0,0,0-1.336.851L324.524,54.507a1.341,1.341,0,0,0,.105,1.295,1.46,1.46,0,0,0,1.231.657h.653a1.452,1.452,0,0,0,1.34-.859l11.053-25.374a1.991,1.991,0,0,1,1.858-1.2" transform="translate(-232.242 -13.923)" fill="#090909"/>
    <path id="패스_516" data-name="패스 516" d="M604.8,19.442l21.477,24.027a1.634,1.634,0,0,0,2.847-1.139V19.182a1.662,1.662,0,0,1,1.639-1.684h.567a1.662,1.662,0,0,1,1.639,1.684v33.2a1.634,1.634,0,0,1-2.848,1.138L608.646,29.454a1.634,1.634,0,0,0-2.848,1.138V53.682a1.662,1.662,0,0,1-1.639,1.684h-.567a1.662,1.662,0,0,1-1.639-1.684v-33.1a1.634,1.634,0,0,1,2.847-1.139" transform="translate(-431.688 -12.549)" fill="#050605"/>
    <path id="패스_517" data-name="패스 517" d="M603.442,54.933h-.567a1.947,1.947,0,0,1-1.922-1.967v-33.1a1.95,1.95,0,0,1,1.251-1.843,1.859,1.859,0,0,1,2.089.516L625.77,42.564a1.307,1.307,0,0,0,1.466.364,1.372,1.372,0,0,0,.888-1.315V18.466a1.947,1.947,0,0,1,1.922-1.967h.567a1.947,1.947,0,0,1,1.922,1.967v33.2a1.949,1.949,0,0,1-1.252,1.843,1.86,1.86,0,0,1-2.09-.517L607.718,28.926a1.305,1.305,0,0,0-1.466-.365,1.372,1.372,0,0,0-.888,1.315V52.966a1.947,1.947,0,0,1-1.922,1.967m-.555-36.472a1.372,1.372,0,0,0-1.369,1.4v33.1a1.381,1.381,0,0,0,1.357,1.4h.567a1.381,1.381,0,0,0,1.357-1.4V29.875a1.95,1.95,0,0,1,1.252-1.844,1.859,1.859,0,0,1,2.09.517l21.475,24.065a1.309,1.309,0,0,0,1.466.365,1.372,1.372,0,0,0,.888-1.315v-33.2a1.381,1.381,0,0,0-1.357-1.4h-.567a1.381,1.381,0,0,0-1.357,1.4V41.613a1.95,1.95,0,0,1-1.251,1.843,1.859,1.859,0,0,1-2.089-.516L603.871,18.914a1.3,1.3,0,0,0-.984-.453" transform="translate(-430.971 -11.832)" fill="#090909"/>
  </g>
</svg>
